<?xml version="1.0" standalone="no"?><!DOCTYPE svg PUBLIC "-//W3C//DTD SVG 1.1//EN" "http://www.w3.org/Graphics/SVG/1.1/DTD/svg11.dtd"><svg t="1697881650545" class="icon" viewBox="0 0 1024 1024" version="1.1" xmlns="http://www.w3.org/2000/svg" p-id="1085" xmlns:xlink="http://www.w3.org/1999/xlink" width="200" height="200"><path d="M485.333333 113.877333a52.906667 52.906667 0 0 1 53.333334 0l309.333333 178.56a53.333333 53.333333 0 0 1 26.666667 46.08v357.12a53.546667 53.546667 0 0 1-26.666667 46.293334l-309.333333 178.56a52.906667 52.906667 0 0 1-53.333334 0l-309.333333-178.56A53.546667 53.546667 0 0 1 149.333333 695.637333v-357.12a53.333333 53.333333 0 0 1 26.666667-46.08z m-243.2 284.373334a19.2 19.2 0 0 0-28.8 16.64v263.68a19.413333 19.413333 0 0 0 9.6 16.64l228.266667 132.053333a19.2 19.2 0 0 0 28.8-16.64v-263.893333a19.2 19.2 0 0 0-9.6-16.64z m558.933334 0a19.2 19.2 0 0 0-19.2 0l-228.266667 131.84a19.2 19.2 0 0 0-9.6 16.64v263.893333a19.2 19.2 0 0 0 28.8 16.213333l228.266667-131.626666a19.413333 19.413333 0 0 0 9.6-16.64v-263.68a19.2 19.2 0 0 0-9.6-16.64z m-279.466667-220.373334a19.2 19.2 0 0 0-19.2 0l-228.266667 131.626667a19.2 19.2 0 0 0 0 33.28l228.266667 131.84a19.2 19.2 0 0 0 19.2 0l228.266667-131.84a19.2 19.2 0 0 0 0-33.28z" fill="currentColor" p-id="1086"></path></svg>