<?xml version="1.0" standalone="no"?><!DOCTYPE svg PUBLIC "-//W3C//DTD SVG 1.1//EN" "http://www.w3.org/Graphics/SVG/1.1/DTD/svg11.dtd"><svg t="1697881823996" class="icon" viewBox="0 0 1078 1024" version="1.1" xmlns="http://www.w3.org/2000/svg" p-id="5528" xmlns:xlink="http://www.w3.org/1999/xlink" width="210.546875" height="200"><path d="M982.879933 95.555368A322.667789 322.667789 0 0 0 753.180564 0.592842a320.889263 320.889263 0 0 0-202.590316 70.709895l-10.455579 8.407579-29.965473-21.773474-1.347369-0.862316A326.278737 326.278737 0 0 0 324.98688 0a321.751579 321.751579 0 0 0-87.309474 12.126316l-13.419789 4.311579a320.889263 320.889263 0 0 0-129.293474 79.225263A322.667789 322.667789 0 0 0 0.001617 325.308632C0.001617 412.240842 33.739722 493.837474 95.018038 555.115789l428.355368 428.355369a21.881263 21.881263 0 0 0 31.151158 0l428.355369-428.355369a325.308632 325.308632 0 0 0 0-459.560421zM539.00288 923.216842L138.780564 523.102316a270.443789 270.443789 0 0 1-79.602526-192.512c0-72.811789 28.294737-141.204211 79.602526-192.512A269.204211 269.204211 0 0 1 330.376354 58.583579c106.981053 0 157.480421 46.888421 160.067368 49.259789l8.084211 4.850527-203.452632 203.560421c-8.299789 8.353684-14.389895 28.833684 0 41.984 14.443789 13.150316 33.414737 7.060211 35.301053 5.173895l223.663158-225.38779a270.443789 270.443789 0 0 1 192.565894-79.656421c72.757895 0 141.150316 28.294737 192.458106 79.602526a272.653474 272.653474 0 0 1 0 385.077895l-400.060632 400.168421z" fill="currentColor" p-id="5529"></path></svg>