<?xml version="1.0" standalone="no"?><!DOCTYPE svg PUBLIC "-//W3C//DTD SVG 1.1//EN" "http://www.w3.org/Graphics/SVG/1.1/DTD/svg11.dtd"><svg t="1699781590644" class="icon" viewBox="0 0 1024 1024" version="1.1" xmlns="http://www.w3.org/2000/svg" p-id="1720" xmlns:xlink="http://www.w3.org/1999/xlink" width="200" height="200"><path d="M701.1 1024c-1.8 0-3.6-0.2-5.4-0.5-3.5-0.7-6.9-2.1-10-4.1-1.5-1-2.9-2.1-4.2-3.4-1.3-1.3-2.4-2.7-3.4-4.2s-1.9-3.1-2.5-4.8c-0.7-1.7-1.2-3.4-1.6-5.2-0.7-3.6-0.7-7.2 0-10.8 0.4-1.8 0.9-3.5 1.6-5.2 0.7-1.7 1.5-3.3 2.5-4.8s2.1-2.9 3.4-4.2c1.3-1.3 2.7-2.4 4.2-3.4s3.1-1.9 4.8-2.5c1.7-0.7 3.4-1.3 5.2-1.6 3.6-0.7 7.2-0.7 10.8 0 3.5 0.7 6.9 2.1 9.9 4.1 1.5 1 2.9 2.1 4.2 3.4 1.3 1.3 2.5 2.7 3.5 4.2s1.9 3.1 2.5 4.8c0.7 1.7 1.2 3.4 1.6 5.2 0.7 3.6 0.7 7.2 0 10.8-0.4 1.8-0.9 3.5-1.6 5.2-0.7 1.7-1.5 3.3-2.5 4.8s-2.2 2.9-3.5 4.2c-1.3 1.3-2.7 2.4-4.2 3.4s-3.1 1.8-4.8 2.5c-1.7 0.7-3.4 1.2-5.2 1.6-1.6 0.3-3.5 0.5-5.3 0.5z m-378.2 0c-1.8 0-3.6-0.2-5.4-0.5-1.8-0.4-3.5-0.9-5.2-1.6-1.7-0.7-3.3-1.5-4.8-2.5s-2.9-2.1-4.2-3.4c-1.3-1.3-2.4-2.7-3.5-4.2-1-1.5-1.9-3.1-2.5-4.8-0.7-1.7-1.2-3.4-1.6-5.2-0.7-3.6-0.7-7.2 0-10.8 0.4-1.8 0.9-3.5 1.6-5.2 0.7-1.7 1.5-3.3 2.5-4.8s2.1-2.9 3.4-4.2c1.3-1.3 2.7-2.4 4.2-3.4s3.1-1.9 4.8-2.5c1.7-0.7 3.4-1.2 5.2-1.6 3.6-0.7 7.2-0.7 10.8 0 1.8 0.4 3.5 0.9 5.2 1.6 1.7 0.7 3.3 1.5 4.8 2.5s2.9 2.2 4.2 3.4c1.3 1.3 2.4 2.7 3.4 4.2s1.9 3.1 2.5 4.8c0.7 1.7 1.2 3.4 1.6 5.2 0.4 1.8 0.5 3.6 0.6 5.4 0 1.8-0.2 3.6-0.5 5.4-0.4 1.8-0.9 3.5-1.6 5.2-0.7 1.7-1.5 3.3-2.5 4.8s-2.1 2.9-3.4 4.2c-1.3 1.3-2.7 2.4-4.2 3.4s-3.1 1.9-4.8 2.5c-3.3 1.4-6.9 2.1-10.6 2.1z m378.2-82.8c-15.3 0-27.6-12.3-27.7-27.6V769.4H350.6v144.2c-0.5 15.3-13.3 27.2-28.6 26.7-14.5-0.5-26.2-12.2-26.7-26.7V769.3c-53.6 0-97-43.4-97-97s43.4-97 97-97v-88.8H276c-15.3 0-27.6-12.3-27.7-27.6V172.7c0-15.2 12.4-27.6 27.6-27.6h19.2v-34.6c0.5-15.3 13.3-27.2 28.6-26.7 14.5 0.5 26.2 12.2 26.7 26.7v34.6h323v-34.6c0.4-15.3 13-27.4 28.3-27 14.8 0.4 26.6 12.2 27 27v34.6H748c15.3 0 27.6 12.4 27.7 27.6v286.1c0 15.3-12.4 27.6-27.7 27.6h-19.3v88.9c53.6 0 97 43.5 96.9 97 0 53.5-43.4 96.9-96.9 96.9v144.3c0 15.4-12.3 27.7-27.6 27.7zM298 630.5c-23.1 0-41.8 18.7-41.8 41.8 0 23.1 18.7 41.8 41.8 41.8h428c23.1 0 41.8-18.7 41.8-41.8 0-23.1-18.7-41.8-41.8-41.8H298z m52.6-144v88.8h322.9v-88.8H350.6z m-47-286.2v230.9h416.8V200.3H303.6z m397.5-145c-1.8 0-3.6-0.2-5.4-0.6-3.6-0.7-7-2.1-10-4.1-9.3-6.2-14-17.4-11.8-28.3 0.4-1.8 0.9-3.5 1.6-5.2 0.7-1.7 1.5-3.2 2.5-4.7s2.1-2.9 3.4-4.2c1.3-1.3 2.7-2.4 4.2-3.5 1.5-1 3.1-1.9 4.8-2.5 1.7-0.7 3.4-1.2 5.2-1.6 1.7-0.3 3.5-0.5 5.3-0.5 7.4 0 14.4 2.9 19.6 8.1 1.3 1.3 2.5 2.7 3.5 4.2s1.9 3.1 2.5 4.7c0.7 1.7 1.2 3.4 1.6 5.2 0.3 1.8 0.5 3.6 0.5 5.4 0 7.3-2.9 14.3-8.1 19.5-1.3 1.3-2.7 2.4-4.2 3.4-4.4 3-9.7 4.7-15.2 4.7z m-378.2 0c-1.8 0-3.6-0.2-5.4-0.5-1.8-0.4-3.5-0.9-5.2-1.6-1.7-0.7-3.3-1.5-4.8-2.5s-2.9-2.1-4.2-3.4c-6.5-6.5-9.3-15.9-7.6-24.9 0.4-1.8 0.9-3.5 1.6-5.2 0.7-1.7 1.5-3.2 2.5-4.7s2.2-2.9 3.4-4.2c1.3-1.3 2.7-2.4 4.2-3.4s3.1-1.8 4.8-2.5c1.7-0.7 3.4-1.2 5.2-1.6 3.6-0.7 7.2-0.7 10.8 0 3.6 0.7 6.9 2.1 10 4.1 1.5 1 2.9 2.2 4.2 3.4 1.3 1.3 2.4 2.7 3.4 4.2s1.9 3.1 2.5 4.7c0.7 1.7 1.2 3.4 1.6 5.2 0.4 1.8 0.5 3.6 0.5 5.4 0 9.2-4.6 17.8-12.3 22.9-1.5 1-3.1 1.8-4.8 2.5-1.7 0.7-3.4 1.2-5.2 1.6-1.5 0.3-3.4 0.5-5.2 0.5z" fill="#ffffff" p-id="1721"></path></svg>