{
	"asset":{
		"generator":"Khronos glTF Blender I/O v3.6.27",
		"version":"2.0"
	},
	"scene":0,
	"scenes":[
		{
			"name":"Scene",
			"nodes":[
				0,
				1,
				2,
				3,
				5,
				6,
				7,
				8,
				9,
				10,
				11
			]
		}
	],
	"nodes":[
		{
			"mesh":0,
			"name":"\u7acb\u65b9\u4f53",
			"scale":[
				1,
				0.09091126173734665,
				0.7994198203086853
			],
			"translation":[
				0.09158587455749512,
				1.214756965637207,
				0.41722801327705383
			]
		},
		{
			"mesh":1,
			"name":"\u7acb\u65b9\u4f53.001",
			"rotation":[
				0,
				1,
				0,
				0
			],
			"scale":[
				-1.0029613971710205,
				-1.043963074684143,
				-0.8202635645866394
			],
			"translation":[
				1.0415863990783691,
				1.0389900207519531,
				0.2779405415058136
			]
		},
		{
			"mesh":2,
			"name":"\u7acb\u65b9\u4f53.002",
			"rotation":[
				0.9530267119407654,
				0,
				0,
				0.302886426448822
			],
			"scale":[
				0.7424382567405701,
				1.10454261302948,
				0.9607039093971252
			],
			"translation":[
				0.9585790038108826,
				0.6147569417953491,
				0.42794084548950195
			]
		},
		{
			"mesh":3,
			"name":"\u7acb\u65b9\u4f53.003",
			"rotation":[
				-0.9552387595176697,
				0,
				0,
				0.2958359718322754
			],
			"scale":[
				0.7424382567405701,
				1.10454261302948,
				0.9607039093971252
			],
			"translation":[
				0.8835927844047546,
				0.6147569417953491,
				0.42794084548950195
			]
		},
		{
			"name":"\u66f2\u7ebf"
		},
		{
			"children":[
				4
			],
			"mesh":4,
			"name":"\u7acb\u65b9\u4f53.004",
			"rotation":[
				0,
				1,
				0,
				0
			],
			"scale":[
				-1.0029613971710205,
				-1.043963074684143,
				-0.8232294321060181
			],
			"translation":[
				0.9415863752365112,
				1.0389900207519531,
				0.2779405117034912
			]
		},
		{
			"mesh":5,
			"name":"\u67f1\u4f53",
			"rotation":[
				-0.17440557479858398,
				0,
				0,
				0.9846739172935486
			],
			"scale":[
				0.060000017285346985,
				0.9062287211418152,
				0.060000017285346985
			],
			"translation":[
				0.9771484136581421,
				1.827699899673462,
				-0.812059223651886
			]
		},
		{
			"mesh":6,
			"name":"\u7acb\u65b9\u4f53.005",
			"rotation":[
				-0.17858169972896576,
				0,
				0,
				0.9839251637458801
			],
			"scale":[
				1,
				0.6280791759490967,
				0.5587514638900757
			],
			"translation":[
				0.09714794158935547,
				2.0576999187469482,
				-0.8820591568946838
			]
		},
		{
			"mesh":7,
			"name":"\u67f1\u4f53.001",
			"rotation":[
				-0.671533465385437,
				0.6782019138336182,
				0.19936786592006683,
				0.22212029993534088
			],
			"scale":[
				-0.06648580729961395,
				-0.02987610548734665,
				-0.06648579984903336
			],
			"translation":[
				1.107148289680481,
				1.0476999282836914,
				1.0079407691955566
			]
		},
		{
			"mesh":8,
			"name":"\u67f1\u4f53.002",
			"rotation":[
				-0.671533465385437,
				0.6782019138336182,
				0.19936786592006683,
				0.22212029993534088
			],
			"scale":[
				-0.06648580729961395,
				-0.02987610548734665,
				-0.06648579984903336
			],
			"translation":[
				1.107148289680481,
				1.0476999282836914,
				-0.0720592737197876
			]
		},
		{
			"mesh":9,
			"name":"\u67f1\u4f53.003",
			"rotation":[
				-0.671533465385437,
				0.6782019138336182,
				0.19936786592006683,
				0.22212029993534088
			],
			"scale":[
				-0.06648580729961395,
				-0.02987610548734665,
				-0.06648579984903336
			],
			"translation":[
				0.8971482515335083,
				1.0476999282836914,
				1.0279407501220703
			]
		},
		{
			"mesh":10,
			"name":"\u67f1\u4f53.004",
			"rotation":[
				-0.671533465385437,
				0.6782019138336182,
				0.19936786592006683,
				0.22212029993534088
			],
			"scale":[
				-0.06648580729961395,
				-0.02987610548734665,
				-0.06648579984903336
			],
			"translation":[
				0.8071483373641968,
				1.0476999282836914,
				-0.0720592737197876
			]
		}
	],
	"materials":[
		{
			"doubleSided":true,
			"name":"\u6750\u8d28",
			"pbrMetallicRoughness":{
				"baseColorFactor":[
					0.28878334164619446,
					0.8000000715255737,
					0.2643599510192871,
					1
				],
				"metallicFactor":0,
				"roughnessFactor":0.5
			}
		},
		{
			"doubleSided":true,
			"name":"\u6750\u8d28.001",
			"pbrMetallicRoughness":{
				"baseColorFactor":[
					0.7304608821868896,
					0.31398847699165344,
					0.01938246190547943,
					1
				],
				"metallicFactor":0,
				"roughnessFactor":0.5
			}
		},
		{
			"doubleSided":true,
			"name":"\u6750\u8d28.004",
			"pbrMetallicRoughness":{
				"baseColorFactor":[
					0.7304608821868896,
					0.31398847699165344,
					0.01938246190547943,
					1
				],
				"metallicFactor":0,
				"roughnessFactor":0.5
			}
		},
		{
			"doubleSided":true,
			"name":"\u6750\u8d28.003",
			"pbrMetallicRoughness":{
				"baseColorFactor":[
					0.7304608821868896,
					0.31398847699165344,
					0.01938246190547943,
					1
				],
				"metallicFactor":0,
				"roughnessFactor":0.5
			}
		},
		{
			"doubleSided":true,
			"name":"\u6750\u8d28.009",
			"pbrMetallicRoughness":{
				"baseColorFactor":[
					0.7304608821868896,
					0.31398847699165344,
					0.01938246190547943,
					1
				],
				"metallicFactor":0,
				"roughnessFactor":0.5
			}
		},
		{
			"doubleSided":true,
			"name":"\u6750\u8d28.002",
			"pbrMetallicRoughness":{
				"baseColorFactor":[
					0.7304608821868896,
					0.31398847699165344,
					0.01938246190547943,
					1
				],
				"metallicFactor":0,
				"roughnessFactor":0.5
			}
		},
		{
			"doubleSided":true,
			"name":"Material",
			"pbrMetallicRoughness":{
				"baseColorFactor":[
					0.24676553905010223,
					1,
					0.1963586062192917,
					1
				],
				"metallicFactor":0,
				"roughnessFactor":0.5
			}
		},
		{
			"doubleSided":true,
			"name":"\u6750\u8d28.005",
			"pbrMetallicRoughness":{
				"baseColorFactor":[
					0.7991026043891907,
					0.6938713788986206,
					0.1022418960928917,
					1
				],
				"metallicFactor":0,
				"roughnessFactor":0.5
			}
		},
		{
			"doubleSided":true,
			"name":"\u6750\u8d28.006",
			"pbrMetallicRoughness":{
				"baseColorFactor":[
					0.7991026043891907,
					0.6938713788986206,
					0.1022418960928917,
					1
				],
				"metallicFactor":0,
				"roughnessFactor":0.5
			}
		},
		{
			"doubleSided":true,
			"name":"\u6750\u8d28.007",
			"pbrMetallicRoughness":{
				"baseColorFactor":[
					0.7991026043891907,
					0.6938713788986206,
					0.1022418960928917,
					1
				],
				"metallicFactor":0,
				"roughnessFactor":0.5
			}
		},
		{
			"doubleSided":true,
			"name":"\u6750\u8d28.008",
			"pbrMetallicRoughness":{
				"baseColorFactor":[
					0.7991026043891907,
					0.6938713788986206,
					0.1022418960928917,
					1
				],
				"metallicFactor":0,
				"roughnessFactor":0.5
			}
		}
	],
	"meshes":[
		{
			"name":"\u7acb\u65b9\u4f53",
			"primitives":[
				{
					"attributes":{
						"POSITION":0,
						"NORMAL":1,
						"TEXCOORD_0":2
					},
					"indices":3,
					"material":0
				}
			]
		},
		{
			"name":"\u7acb\u65b9\u4f53.001",
			"primitives":[
				{
					"attributes":{
						"POSITION":4,
						"NORMAL":5,
						"TEXCOORD_0":6
					},
					"indices":7,
					"material":1
				}
			]
		},
		{
			"name":"\u7acb\u65b9\u4f53.003",
			"primitives":[
				{
					"attributes":{
						"POSITION":8,
						"NORMAL":9,
						"TEXCOORD_0":10
					},
					"indices":7,
					"material":2
				}
			]
		},
		{
			"name":"\u7acb\u65b9\u4f53.005",
			"primitives":[
				{
					"attributes":{
						"POSITION":11,
						"NORMAL":12,
						"TEXCOORD_0":13
					},
					"indices":7,
					"material":3
				}
			]
		},
		{
			"name":"\u7acb\u65b9\u4f53.006",
			"primitives":[
				{
					"attributes":{
						"POSITION":14,
						"NORMAL":15,
						"TEXCOORD_0":16
					},
					"indices":7,
					"material":4
				}
			]
		},
		{
			"name":"\u67f1\u4f53",
			"primitives":[
				{
					"attributes":{
						"POSITION":17,
						"NORMAL":18,
						"TEXCOORD_0":19
					},
					"indices":20,
					"material":5
				}
			]
		},
		{
			"name":"\u7acb\u65b9\u4f53.007",
			"primitives":[
				{
					"attributes":{
						"POSITION":21,
						"NORMAL":22,
						"TEXCOORD_0":23
					},
					"indices":24,
					"material":6
				}
			]
		},
		{
			"name":"\u67f1\u4f53.001",
			"primitives":[
				{
					"attributes":{
						"POSITION":25,
						"NORMAL":26,
						"TEXCOORD_0":27
					},
					"indices":28,
					"material":7
				}
			]
		},
		{
			"name":"\u67f1\u4f53.002",
			"primitives":[
				{
					"attributes":{
						"POSITION":29,
						"NORMAL":30,
						"TEXCOORD_0":31
					},
					"indices":28,
					"material":8
				}
			]
		},
		{
			"name":"\u67f1\u4f53.003",
			"primitives":[
				{
					"attributes":{
						"POSITION":32,
						"NORMAL":33,
						"TEXCOORD_0":34
					},
					"indices":28,
					"material":9
				}
			]
		},
		{
			"name":"\u67f1\u4f53.004",
			"primitives":[
				{
					"attributes":{
						"POSITION":35,
						"NORMAL":36,
						"TEXCOORD_0":37
					},
					"indices":28,
					"material":10
				}
			]
		}
	],
	"accessors":[
		{
			"bufferView":0,
			"componentType":5126,
			"count":188,
			"max":[
				1,
				0.8639485836029053,
				1
			],
			"min":[
				-1,
				-0.8639489412307739,
				-0.9999999403953552
			],
			"type":"VEC3"
		},
		{
			"bufferView":1,
			"componentType":5126,
			"count":188,
			"type":"VEC3"
		},
		{
			"bufferView":2,
			"componentType":5126,
			"count":188,
			"type":"VEC2"
		},
		{
			"bufferView":3,
			"componentType":5123,
			"count":900,
			"type":"SCALAR"
		},
		{
			"bufferView":4,
			"componentType":5126,
			"count":751,
			"max":[
				0.0499994158744812,
				0.09999954700469971,
				1.1500003337860107
			],
			"min":[
				-0.05000060796737671,
				-0.10000038146972656,
				-1.1499998569488525
			],
			"type":"VEC3"
		},
		{
			"bufferView":5,
			"componentType":5126,
			"count":751,
			"type":"VEC3"
		},
		{
			"bufferView":6,
			"componentType":5126,
			"count":751,
			"type":"VEC2"
		},
		{
			"bufferView":7,
			"componentType":5123,
			"count":3060,
			"type":"SCALAR"
		},
		{
			"bufferView":8,
			"componentType":5126,
			"count":751,
			"max":[
				0.0499994158744812,
				0.09999954700469971,
				0.8500005006790161
			],
			"min":[
				-0.05000060796737671,
				-0.10000038146972656,
				-0.8499995470046997
			],
			"type":"VEC3"
		},
		{
			"bufferView":9,
			"componentType":5126,
			"count":751,
			"type":"VEC3"
		},
		{
			"bufferView":10,
			"componentType":5126,
			"count":751,
			"type":"VEC2"
		},
		{
			"bufferView":11,
			"componentType":5126,
			"count":751,
			"max":[
				0.0499994158744812,
				0.09999954700469971,
				0.8500005006790161
			],
			"min":[
				-0.05000060796737671,
				-0.10000038146972656,
				-0.8499995470046997
			],
			"type":"VEC3"
		},
		{
			"bufferView":12,
			"componentType":5126,
			"count":751,
			"type":"VEC3"
		},
		{
			"bufferView":13,
			"componentType":5126,
			"count":751,
			"type":"VEC2"
		},
		{
			"bufferView":14,
			"componentType":5126,
			"count":751,
			"max":[
				0.0499994158744812,
				0.09999954700469971,
				0.5333177447319031
			],
			"min":[
				-0.05000060796737671,
				-0.10000038146972656,
				-1.1499998569488525
			],
			"type":"VEC3"
		},
		{
			"bufferView":15,
			"componentType":5126,
			"count":751,
			"type":"VEC3"
		},
		{
			"bufferView":16,
			"componentType":5126,
			"count":751,
			"type":"VEC2"
		},
		{
			"bufferView":17,
			"componentType":5126,
			"count":130,
			"max":[
				1,
				1,
				1
			],
			"min":[
				-1,
				-1,
				-1
			],
			"type":"VEC3"
		},
		{
			"bufferView":18,
			"componentType":5126,
			"count":130,
			"type":"VEC3"
		},
		{
			"bufferView":19,
			"componentType":5126,
			"count":130,
			"type":"VEC2"
		},
		{
			"bufferView":20,
			"componentType":5123,
			"count":372,
			"type":"SCALAR"
		},
		{
			"bufferView":21,
			"componentType":5126,
			"count":630,
			"max":[
				1,
				1,
				0.1545947790145874
			],
			"min":[
				-1,
				-1,
				-0.1545947790145874
			],
			"type":"VEC3"
		},
		{
			"bufferView":22,
			"componentType":5126,
			"count":630,
			"type":"VEC3"
		},
		{
			"bufferView":23,
			"componentType":5126,
			"count":630,
			"type":"VEC2"
		},
		{
			"bufferView":24,
			"componentType":5123,
			"count":2340,
			"type":"SCALAR"
		},
		{
			"bufferView":25,
			"componentType":5126,
			"count":192,
			"max":[
				1,
				1,
				1
			],
			"min":[
				-1,
				-1,
				-1
			],
			"type":"VEC3"
		},
		{
			"bufferView":26,
			"componentType":5126,
			"count":192,
			"type":"VEC3"
		},
		{
			"bufferView":27,
			"componentType":5126,
			"count":192,
			"type":"VEC2"
		},
		{
			"bufferView":28,
			"componentType":5123,
			"count":372,
			"type":"SCALAR"
		},
		{
			"bufferView":29,
			"componentType":5126,
			"count":192,
			"max":[
				1,
				1,
				1
			],
			"min":[
				-1,
				-1,
				-1
			],
			"type":"VEC3"
		},
		{
			"bufferView":30,
			"componentType":5126,
			"count":192,
			"type":"VEC3"
		},
		{
			"bufferView":31,
			"componentType":5126,
			"count":192,
			"type":"VEC2"
		},
		{
			"bufferView":32,
			"componentType":5126,
			"count":192,
			"max":[
				1,
				1,
				1
			],
			"min":[
				-1,
				-1,
				-1
			],
			"type":"VEC3"
		},
		{
			"bufferView":33,
			"componentType":5126,
			"count":192,
			"type":"VEC3"
		},
		{
			"bufferView":34,
			"componentType":5126,
			"count":192,
			"type":"VEC2"
		},
		{
			"bufferView":35,
			"componentType":5126,
			"count":192,
			"max":[
				1,
				1,
				1
			],
			"min":[
				-1,
				-1,
				-1
			],
			"type":"VEC3"
		},
		{
			"bufferView":36,
			"componentType":5126,
			"count":192,
			"type":"VEC3"
		},
		{
			"bufferView":37,
			"componentType":5126,
			"count":192,
			"type":"VEC2"
		}
	],
	"bufferViews":[
		{
			"buffer":0,
			"byteLength":2256,
			"byteOffset":0,
			"target":34962
		},
		{
			"buffer":0,
			"byteLength":2256,
			"byteOffset":2256,
			"target":34962
		},
		{
			"buffer":0,
			"byteLength":1504,
			"byteOffset":4512,
			"target":34962
		},
		{
			"buffer":0,
			"byteLength":1800,
			"byteOffset":6016,
			"target":34963
		},
		{
			"buffer":0,
			"byteLength":9012,
			"byteOffset":7816,
			"target":34962
		},
		{
			"buffer":0,
			"byteLength":9012,
			"byteOffset":16828,
			"target":34962
		},
		{
			"buffer":0,
			"byteLength":6008,
			"byteOffset":25840,
			"target":34962
		},
		{
			"buffer":0,
			"byteLength":6120,
			"byteOffset":31848,
			"target":34963
		},
		{
			"buffer":0,
			"byteLength":9012,
			"byteOffset":37968,
			"target":34962
		},
		{
			"buffer":0,
			"byteLength":9012,
			"byteOffset":46980,
			"target":34962
		},
		{
			"buffer":0,
			"byteLength":6008,
			"byteOffset":55992,
			"target":34962
		},
		{
			"buffer":0,
			"byteLength":9012,
			"byteOffset":62000,
			"target":34962
		},
		{
			"buffer":0,
			"byteLength":9012,
			"byteOffset":71012,
			"target":34962
		},
		{
			"buffer":0,
			"byteLength":6008,
			"byteOffset":80024,
			"target":34962
		},
		{
			"buffer":0,
			"byteLength":9012,
			"byteOffset":86032,
			"target":34962
		},
		{
			"buffer":0,
			"byteLength":9012,
			"byteOffset":95044,
			"target":34962
		},
		{
			"buffer":0,
			"byteLength":6008,
			"byteOffset":104056,
			"target":34962
		},
		{
			"buffer":0,
			"byteLength":1560,
			"byteOffset":110064,
			"target":34962
		},
		{
			"buffer":0,
			"byteLength":1560,
			"byteOffset":111624,
			"target":34962
		},
		{
			"buffer":0,
			"byteLength":1040,
			"byteOffset":113184,
			"target":34962
		},
		{
			"buffer":0,
			"byteLength":744,
			"byteOffset":114224,
			"target":34963
		},
		{
			"buffer":0,
			"byteLength":7560,
			"byteOffset":114968,
			"target":34962
		},
		{
			"buffer":0,
			"byteLength":7560,
			"byteOffset":122528,
			"target":34962
		},
		{
			"buffer":0,
			"byteLength":5040,
			"byteOffset":130088,
			"target":34962
		},
		{
			"buffer":0,
			"byteLength":4680,
			"byteOffset":135128,
			"target":34963
		},
		{
			"buffer":0,
			"byteLength":2304,
			"byteOffset":139808,
			"target":34962
		},
		{
			"buffer":0,
			"byteLength":2304,
			"byteOffset":142112,
			"target":34962
		},
		{
			"buffer":0,
			"byteLength":1536,
			"byteOffset":144416,
			"target":34962
		},
		{
			"buffer":0,
			"byteLength":744,
			"byteOffset":145952,
			"target":34963
		},
		{
			"buffer":0,
			"byteLength":2304,
			"byteOffset":146696,
			"target":34962
		},
		{
			"buffer":0,
			"byteLength":2304,
			"byteOffset":149000,
			"target":34962
		},
		{
			"buffer":0,
			"byteLength":1536,
			"byteOffset":151304,
			"target":34962
		},
		{
			"buffer":0,
			"byteLength":2304,
			"byteOffset":152840,
			"target":34962
		},
		{
			"buffer":0,
			"byteLength":2304,
			"byteOffset":155144,
			"target":34962
		},
		{
			"buffer":0,
			"byteLength":1536,
			"byteOffset":157448,
			"target":34962
		},
		{
			"buffer":0,
			"byteLength":2304,
			"byteOffset":158984,
			"target":34962
		},
		{
			"buffer":0,
			"byteLength":2304,
			"byteOffset":161288,
			"target":34962
		},
		{
			"buffer":0,
			"byteLength":1536,
			"byteOffset":163592,
			"target":34962
		}
	],
	"buffers":[
		{
			"byteLength":165128,
			"uri":"data:application/octet-stream;base64,"
		}
	]
}
